<?xml version="1.0" standalone="no"?>
<!DOCTYPE svg PUBLIC "-//W3C//DTD SVG 20010904//EN"
 "http://www.w3.org/TR/2001/REC-SVG-20010904/DTD/svg10.dtd">
<svg version="1.0" xmlns="http://www.w3.org/2000/svg"
 width="700.000000pt" height="700.000000pt" viewBox="0 0 700.000000 700.000000"
 preserveAspectRatio="xMidYMid meet">
<metadata>
Created by potrace 1.11, written by Peter Selinger 2001-2013
</metadata>
<g transform="translate(0.000000,700.000000) scale(0.100000,-0.100000)"
fill="#000000" stroke="none">
<path d="M4461 6987 c-13 -6 -68 -75 -122 -152 -54 -77 -128 -183 -164 -235
-37 -52 -182 -260 -323 -462 -142 -203 -450 -645 -687 -983 -236 -339 -519
-743 -627 -898 -108 -155 -206 -295 -218 -312 -20 -28 -409 -585 -493 -705
-21 -30 -72 -102 -113 -160 -41 -58 -80 -118 -88 -134 -16 -35 -6 -80 24 -111
20 -20 33 -20 670 -25 l650 -5 26 -27 c33 -32 29 35 49 -758 2 -74 6 -232 10
-350 6 -228 11 -397 20 -730 3 -113 7 -279 10 -370 3 -91 7 -241 10 -335 4
-145 8 -174 23 -195 26 -34 86 -49 120 -30 14 9 115 147 231 317 203 298 235
344 502 738 74 110 256 378 404 595 430 632 481 707 581 855 53 77 143 210
201 295 58 85 147 216 198 290 50 74 139 205 197 290 114 167 289 425 395 582
71 104 79 135 48 182 -9 14 -27 29 -38 33 -12 4 -306 8 -652 8 l-631 1 -32 23
c-18 12 -33 32 -34 44 0 12 -2 617 -3 1344 -1 1234 -3 1323 -19 1347 -28 43
-80 57 -125 33z"/>
<path d="M3737 6955 c-1 -2 -42 -5 -92 -9 -49 -4 -104 -8 -120 -10 -17 -3 -50
-7 -75 -10 -25 -3 -54 -7 -65 -10 -11 -2 -41 -7 -67 -10 -26 -4 -95 -17 -155
-30 -663 -147 -1259 -472 -1733 -946 -80 -80 -166 -169 -190 -199 -25 -29 -55
-65 -68 -80 -59 -69 -198 -270 -272 -391 -95 -156 -196 -359 -255 -515 -15
-38 -33 -86 -41 -105 -18 -46 -77 -238 -90 -295 -1 -5 -9 -40 -18 -76 -8 -37
-18 -79 -20 -95 -3 -15 -10 -50 -15 -78 -6 -28 -12 -69 -15 -91 -3 -22 -7 -56
-11 -75 -14 -93 -17 -143 -20 -385 -2 -143 1 -296 6 -340 25 -230 27 -240 56
-380 14 -66 26 -127 28 -135 18 -90 104 -350 160 -485 141 -340 366 -702 605
-970 95 -106 286 -291 400 -386 113 -93 361 -268 442 -310 14 -8 77 -42 140
-76 130 -71 205 -105 373 -173 103 -41 309 -110 340 -114 5 0 9 19 8 44 -5
201 -16 602 -18 675 -2 50 -4 144 -5 210 l-2 120 -137 67 c-490 241 -876 618
-1124 1098 -36 69 -80 163 -98 210 -18 47 -36 89 -40 94 -5 5 -49 10 -98 11
-99 2 -130 15 -155 63 -25 49 -11 87 74 208 87 123 85 117 64 228 -15 78 -21
411 -10 500 3 22 8 64 11 91 4 28 11 77 17 110 5 33 12 71 14 85 14 79 92 344
123 415 259 600 662 1028 1226 1305 181 88 314 137 489 180 80 20 126 36 136
49 8 10 137 193 285 407 149 213 305 436 347 496 75 106 76 108 50 110 -40 2
-382 5 -385 3z"/>
<path d="M4729 6858 c-1 -7 -2 -233 -3 -503 -2 -514 -1 -525 41 -525 30 0 170
-59 318 -133 55 -27 121 -61 147 -73 65 -33 130 -46 218 -46 84 1 91 2 172 31
123 43 244 160 292 282 93 235 -6 494 -234 617 -278 150 -554 261 -828 332
-133 35 -122 33 -123 18z"/>
<path d="M5060 1281 c-30 -10 -104 -38 -165 -63 -203 -83 -482 -156 -642 -167
-12 -1 -59 -69 -319 -451 -76 -113 -189 -279 -250 -370 -62 -91 -111 -166
-109 -168 15 -15 475 -22 645 -9 186 14 413 52 600 101 74 20 146 39 159 42
97 21 443 162 506 205 139 96 212 227 219 394 9 216 -146 422 -368 489 -67 20
-211 19 -276 -3z"/>
</g>
</svg>
