<?xml version="1.0" encoding="utf-8"?>
<svg version="1.1" xmlns="http://www.w3.org/2000/svg" xmlns:xlink="http://www.w3.org/1999/xlink" height="18.156356228258574" width="19.389134981744064">
  <defs>
    <rect id="rect-1" opacity="1" x="0.000005343072189134546" y="3.7075472272199477" width="19.389129638671875" height="11.142822265625"/>
  </defs>
  <g opacity="1">
    <g>
      <path fill="rgb(247,247,255)" fill-opacity="1" opacity="1" fill-rule="evenodd" d="M19.389134981744064 9.278958360032448C19.389134981744064 6.204007188157448 16.90363083135344 3.7075472272199477 13.84222946416594 3.7075472272199477C10.78082809697844 3.7075472272199477 8.29535446416594 6.204007188157448 8.29535446416594 9.278958360032448C8.29535446416594 12.353909531907448 10.78082809697844 14.850369492844948 13.84222946416594 14.850369492844948C16.903661348931564 14.850369492844948 19.389134981744064 12.353909531907448 19.389134981744064 9.278958360032448ZM16.790563204400314 9.278897324876198C16.790563204400314 7.644497910813698 15.469457247369064 6.317532578782448 13.842198946587814 6.317532578782448C12.21497116338469 6.317532578782448 10.89386520635344 7.644497910813698 10.89386520635344 9.278897324876198C10.89386520635344 10.913357774094948 12.21497116338469 12.240323106126198 13.842198946587814 12.240323106126198C15.469457247369064 12.240323106126198 16.790563204400314 10.913357774094948 16.790563204400314 9.278897324876198Z"/>
    </g>
    <g>
      <path fill="rgb(247,247,255)" fill-opacity="1" opacity="1" fill-rule="evenodd" d="M5.546880343072189 3.7075472272199477C6.936132052056564 3.7075472272199477 8.20679245244719 4.221646348313698 9.180394747369064 5.070584336594948L7.666356661431564 7.221158067063698C7.130132296197189 6.664090195969948 6.378484346978439 6.317532578782448 5.546880343072189 6.317532578782448C3.919652559869064 6.317532578782448 2.598546602837814 7.644497910813698 2.598546602837814 9.278897324876198C2.598546602837814 10.913357774094948 3.919652559869064 12.240323106126198 5.546880343072189 12.240323106126198C6.380254366509689 12.240323106126198 7.133306124322189 11.892300645188698 7.669744112603439 11.333157578782448L9.26312790166594 13.413723985032448C8.27930221807219 14.306485215501198 6.975835421197189 14.850369492844948 5.546880343072189 14.850369492844948C2.485478975884689 14.850369492844948 0.000005343072189134546 12.353909531907448 0.000005343072189134546 9.278958360032448C0.000005343072189134546 6.204007188157448 2.485478975884689 3.7075472272199477 5.546880343072189 3.7075472272199477Z"/>
    </g>
  </g>
</svg>