<svg xmlns="http://www.w3.org/2000/svg" width="32" height="32" viewBox="0 0 32 32">
  <path id="_ionicons_svg_logo-dribbble" d="M80,64A16,16,0,1,0,96,80,16,16,0,0,0,80,64Zm10.158,7.375A13.312,13.312,0,0,1,93.3,79.117a67.457,67.457,0,0,0-9.1.108c-.35-.883-.708-1.75-1.1-2.583A16.2,16.2,0,0,0,90.158,71.375ZM80,66.667a13.274,13.274,0,0,1,8.508,3.067,16.587,16.587,0,0,1-6.558,4.633,32.565,32.565,0,0,0-5.233-7.275A13.381,13.381,0,0,1,80,66.667Zm-6.033,1.458a32.216,32.216,0,0,1,5.317,7.217,35.023,35.023,0,0,1-10.142,1.442c-.7,0-1.383-.025-2.058-.067A13.342,13.342,0,0,1,73.967,68.125ZM66.692,79.367c.758.033,1.525.05,2.3.042a39.441,39.441,0,0,0,11.467-1.783q.475.987.9,2.025a8.249,8.249,0,0,0-1.192.358A19.915,19.915,0,0,0,70,88.8,13.284,13.284,0,0,1,66.667,80C66.667,79.783,66.675,79.575,66.692,79.367ZM80,93.333a13.256,13.256,0,0,1-8.175-2.808,18.338,18.338,0,0,1,8.933-8.233,7.183,7.183,0,0,1,1.45-.442q.712,1.975,1.275,4.1a48.434,48.434,0,0,1,1.233,6.508A13.21,13.21,0,0,1,80,93.333Zm7.208-2.125a48.105,48.105,0,0,0-1.242-6.575c-.283-1.083-.608-2.133-.958-3.158a56.672,56.672,0,0,1,8.242,0A13.32,13.32,0,0,1,87.208,91.208Z" transform="translate(-64 -64)" fill="#f7f7ff"/>
</svg>
