<svg xmlns="http://www.w3.org/2000/svg" width="32" height="32" viewBox="0 0 32 32">
  <path id="_ionicons_svg_logo-github" d="M48,32A16.211,16.211,0,0,0,32,48.407,16.376,16.376,0,0,0,42.943,63.971a1.254,1.254,0,0,0,.271.029.774.774,0,0,0,.821-.814c0-.393-.014-1.421-.021-2.793a7.315,7.315,0,0,1-1.614.193,3.717,3.717,0,0,1-3.779-2.393,4.333,4.333,0,0,0-1.779-2.4c-1.393-.979-.007-1.007.1-1.007h.007a3.44,3.44,0,0,1,2.45,1.7,3.141,3.141,0,0,0,2.829,1.793,4.5,4.5,0,0,0,1.829-.429,3.544,3.544,0,0,1,1.014-2.193c-3.55-.414-7.286-1.821-7.286-8.107a6.422,6.422,0,0,1,1.643-4.4,6.04,6.04,0,0,1,.157-4.343,1.331,1.331,0,0,1,.357-.036c.579,0,1.886.221,4.043,1.721a14.872,14.872,0,0,1,8.014,0c2.157-1.5,3.464-1.721,4.043-1.721a1.331,1.331,0,0,1,.357.036,6.04,6.04,0,0,1,.157,4.343,6.448,6.448,0,0,1,1.643,4.4c0,6.3-3.743,7.686-7.307,8.093a3.978,3.978,0,0,1,1.086,3.036c0,2.193-.021,3.964-.021,4.5a.77.77,0,0,0,.814.821,1.382,1.382,0,0,0,.286-.029A16.466,16.466,0,0,0,48,32Z" transform="translate(-32 -32)" fill="#f7f7ff"/>
</svg>
