<svg id="Group_7" data-name="Group 7" xmlns="http://www.w3.org/2000/svg" width="32" height="32" viewBox="0 0 32 32">
  <circle id="Ellipse_1" data-name="Ellipse 1" cx="16" cy="16" r="16" fill="#f7f7ff"/>
  <path id="_ionicons_svg_logo-linkedin" d="M72.8,85.476H69.335V74.694H72.8ZM71.188,73.055h-.025a1.885,1.885,0,1,1,.025,0ZM85.476,85.476H82.008v-5.9c0-1.412-.5-2.377-1.759-2.377a1.9,1.9,0,0,0-1.778,1.28,2.335,2.335,0,0,0-.12.851v6.141H74.883V74.694h3.468v1.5a3.51,3.51,0,0,1,3.127-1.753c2.276,0,4,1.5,4,4.735Z" transform="translate(-61.377 -62.281)" fill="#71a9f7"/>
</svg>
