<svg xmlns="http://www.w3.org/2000/svg" width="32" height="32" viewBox="0 0 32 32">
  <path id="Exclusion_4" data-name="Exclusion 4" d="M-2965.753-1498a15.9,15.9,0,0,1-11.314-4.687,15.9,15.9,0,0,1-4.687-11.314,15.9,15.9,0,0,1,4.687-11.314,15.9,15.9,0,0,1,11.314-4.686,15.9,15.9,0,0,1,11.314,4.686,15.9,15.9,0,0,1,4.686,11.314,15.9,15.9,0,0,1-4.686,11.314A15.9,15.9,0,0,1-2965.753-1498Zm2.762-18.613h0v7.246c0,.2,0,.23-.126.357l-1.289,1.25v.268h6.255v-.268l-1.243-1.22a.372.372,0,0,1-.142-.357v-8.971a.373.373,0,0,1,.142-.357l1.274-1.221v-.267h-4.409l-3.142,7.839-3.575-7.839h-4.624v.267l1.489,1.795a.621.621,0,0,1,.2.521v7.051a.815.815,0,0,1-.216.7l-1.676,2.032v.269h4.751v-.269l-1.676-2.032a.844.844,0,0,1-.23-.7v-6.1l4.17,9.1h.483Z" transform="translate(2981.753 1530)" fill="#f7f7ff"/>
</svg>
