<svg id="Layer_1" data-name="Layer 1" xmlns="http://www.w3.org/2000/svg" viewBox="0 0 1024 1024"><defs><style>.cls-1{fill:#465362;}.cls-2{fill:#71a9f7;}</style></defs><title>mylogo</title><path class="cls-1" d="M428.41,613H250.7A14.26,14.26,0,0,1,239,590.57L647.42,6.12c8-11.43,25.94-5.78,25.94,8.16V396a14.25,14.25,0,0,0,14.25,14.25H865.35a14.26,14.26,0,0,1,11.79,22.27L479.26,1017.74c-7.78,11.44-25.66,6.21-26-7.62L442.66,626.85A14.25,14.25,0,0,0,428.41,613Z"/><path class="cls-2" d="M431,844.37c-95.67-40.1-170.52-118.75-204.26-216H204.17a16.44,16.44,0,0,1-13.47-25.85l21.5-30.77a357.3,357.3,0,0,1-5-59.8c0-174.62,126.29-320.31,294.2-354l105.51-151Q591.44,6,575.74,6c-285,0-516,226.52-516,506,0,231.68,158.8,427,375.49,487Z"/><path class="cls-2" d="M691.44,168.71a369.67,369.67,0,0,1,68.47,30.13,75.09,75.09,0,0,0,81.73-5.42l13.49-13.24a71.08,71.08,0,0,0,15.3-44.12,71.89,71.89,0,0,0-32.75-60.14l-.07,0q-4.17-2.4-8.38-4.74A519,519,0,0,0,691.44,18.74Z"/><path class="cls-2" d="M803.24,846.71a75.22,75.22,0,0,0-71.15-7.46.51.51,0,0,1-.17.07c-1.27.61-2.55,1.19-3.85,1.76a371.22,371.22,0,0,1-107.94,29.64l-98.21,144.44a534.55,534.55,0,0,0,53.82,2.72A522.53,522.53,0,0,0,786.87,973.7c3.16-1.37,6.3-2.8,9.42-4.25,22.86-12.3,38.36-36.12,38.36-63.5a71,71,0,0,0-13.4-41.58A73.53,73.53,0,0,0,803.24,846.71Z"/></svg>