<svg xmlns="http://www.w3.org/2000/svg" viewBox="0 0 228 470">
  <g id="iPhone" transform="translate(-286 -73)">
    <rect id="Background" width="203" height="427" transform="translate(299 86)" fill="#eff6ff"/>
    <rect id="Button" width="120" height="29" rx="6" transform="translate(340 300)" fill="rgba(113,169,247,0.25)"/>
    <text id="Credits" transform="translate(387 501)" fill="#465362" font-size="8" font-family="Raleway-Regular, Raleway, Avenir" text-decoration="underline"><tspan x="0" y="0">Credits</tspan></text>
    <text id="plank_" data-name="plank!" transform="translate(340 174)" fill="#465362" font-size="40" font-family="Raleway-Bold, Raleway, Avenir" font-weight="700"><tspan x="0" y="0">plank!</tspan></text>
    <text id="arkit_gvr" data-name="arkit + gvr" transform="translate(367 200)" fill="#465362" font-size="15" font-family="Raleway-Regular, Raleway, Avenir"><tspan x="0" y="0">arkit + gvr</tspan></text>
    <text id="Start" transform="translate(382 320)" fill="#71a9f7" font-size="16" font-family="Raleway-Bold, Raleway, Avenir" font-weight="700"><tspan x="0" y="0">Start</tspan></text>
    <g id="Mobile_Body" data-name="Mobile Body" transform="translate(254 67)">
      <g id="All-Screens-Moc-800-x-600-Copy-2" transform="translate(-255 -67)">
        <g id="iPhone-X-White-Copy-13" transform="translate(287 73)">
          <path id="Fill-1" d="M215.4,226.383q0-93.407,0-186.813c0-1.121.015-2.242-.027-3.362A23.482,23.482,0,0,0,192.1,13.514c-6.449-.063-12.9-.023-19.349-.009-2.665.006-3.84,1.092-4.095,3.721-.135,1.394-.188,2.8-.369,4.184a8.023,8.023,0,0,1-4.6,6.357,9.549,9.549,0,0,1-4.485.877q-44.8-.024-89.6-.012c-.351,0-.7.007-1.052,0a8.3,8.3,0,0,1-8.118-7.122c-.219-1.45-.261-2.927-.4-4.39-.254-2.639-1.267-3.6-3.911-3.609-6.45-.019-12.9-.119-19.349.025C28.217,13.723,21.621,17.571,17,24.746c-2.7,4.2-3.569,8.888-3.568,13.827q.024,187.548.013,375.1a13.155,13.155,0,0,0,.02,1.889,47.514,47.514,0,0,0,1.1,6.6,23.349,23.349,0,0,0,22.518,16.658q32.495.048,64.989.01c29.865,0,59.731.065,89.6-.037,10.16-.034,17.408-5,21.779-14.115,1.638-3.416,1.964-7.1,1.963-10.854q-.031-93.722-.015-187.443ZM225.475,104.9c2.433.6,2.52.688,2.521,3q.008,22.382,0,44.763c0,2.41-.066,2.481-2.522,3.191v2.876q0,129.772.015,259.543A35.261,35.261,0,0,1,194.6,453.663a37.186,37.186,0,0,1-4.6.321q-76.353.025-152.705.009A35.155,35.155,0,0,1,2.67,426.647a40.2,40.2,0,0,1-.937-8.74c-.094-13.94-.043-27.88-.043-41.821q0-102.766,0-205.532a16.035,16.035,0,0,0-.029-2.1,1.813,1.813,0,0,0-.558-1.2A2.614,2.614,0,0,1,0,164.7q.013-14.186,0-28.371a2.7,2.7,0,0,1,1.087-2.562,2.026,2.026,0,0,0,.571-1.4c.081-1.185.006-2.381.034-3.571a2.5,2.5,0,0,0-.975-2.324A3.574,3.574,0,0,1,.037,124C-.01,115.593.008,107.187.008,98.78c0-.841.016-1.682,0-2.522-.027-1.153.024-2.22,1.212-2.917.3-.176.449-.825.452-1.258.033-4.2.039-8.406-.008-12.609a1.916,1.916,0,0,0-.627-1.369A2.584,2.584,0,0,1,.005,75.728c.01-3.923-.028-7.846.033-11.768.011-.713.192-1.755.67-2.062,1.061-.683.986-1.56.985-2.533,0-8.056-.085-16.113.022-24.168A34.509,34.509,0,0,1,12.63,9.859,33.9,33.9,0,0,1,36.74.047Q113.618-.046,190.5.034A35.177,35.177,0,0,1,225.058,29.98a41.059,41.059,0,0,1,.4,5.855q.041,33.2.017,66.409Z" fill="#465362" fill-rule="evenodd"/>
        </g>
      </g>
    </g>
  </g>
</svg>
